<svg width="22" height="22" viewBox="0 0 22 22" fill="none" xmlns="http://www.w3.org/2000/svg">
<path d="M20.1503 8.11674L20.1469 8.06045C20.1369 7.99712 19.2304 1.83304 12.1615 1.21734L11.0083 0L9.85851 1.21382C2.77291 1.82249 1.86305 7.99712 1.85639 8.06397V8.12026H0L0.37661 8.7817C1.71307 8.88022 1.56976 10.3685 1.56976 10.3685L1.85305 10.6851L1.84639 22H3.5128V17.9504H5.73913V18.9637L5.47917 19.2381L6.57234 20.3921L7.6655 19.2381L7.40554 18.9637V17.9504H10.1651V18.9637L9.90517 19.2381L10.9983 20.3921L12.0915 19.2381L11.8315 18.9637V17.9504H14.6078V18.9637L14.3478 19.2381L15.441 20.3921L16.5342 19.2381L16.2742 18.9637V17.9504H18.4872V22H20.1536V10.6746L20.4302 10.3649C20.4302 10.3649 20.2903 8.8767 21.6234 8.77819L22 8.11674H20.1503ZM16.2742 8.5882H18.4872V11.519H16.2742V8.5882ZM18.0239 6.82904H16.2775V4.55973C17.1574 5.2845 17.6973 6.12538 18.0239 6.82904ZM5.73913 16.1913H3.5128V13.2781H5.73913V16.1913ZM5.73913 11.519H3.5128V8.5882H5.73913V11.519ZM3.9794 6.82904C4.30601 6.12186 4.84927 5.27395 5.74246 4.54918V6.82904H3.9794ZM10.1685 16.1913H7.40888V13.2781H10.1685V16.1913ZM10.1685 11.519H7.40888V8.5882H10.1685V11.519ZM7.40554 6.82904V3.56757C8.05545 3.30018 8.812 3.09963 9.6952 2.9976L10.1685 3.4972V6.83256H7.40554V6.82904ZM14.6078 16.1913H11.8315V13.2781H14.6078V16.1913ZM14.6078 11.519H11.8315V8.5882H14.6078V11.519ZM11.8349 6.82904V3.51127L12.3215 2.9976C13.2047 3.09963 13.9612 3.30369 14.6111 3.57109V6.82904H11.8349ZM16.2742 16.1913V13.2781H18.4872V16.1913H16.2742Z" fill="#E4C885"/>
</svg>